<svg width="20" height="20" viewBox="0 0 20 20" fill="none" xmlns="http://www.w3.org/2000/svg">
<path fill-rule="evenodd" clip-rule="evenodd" d="M15.135 0.533562C16.1871 0.430288 17.194 0.899793 18.1479 1.85367C19.1017 2.80754 19.5712 3.81439 19.468 4.8665C19.3695 5.86942 18.7682 6.67583 18.1479 7.29616L11.5812 13.8628L11.5702 13.8736C11.3533 14.0835 11.0792 14.2591 10.8237 14.3876C10.5702 14.515 10.2597 14.6339 9.95086 14.678L7.44252 15.0363L7.43775 15.037L7.43775 15.037C6.73723 15.1334 6.04345 14.9437 5.54942 14.4517C5.0541 13.9584 4.86237 13.2633 4.96542 12.5574L4.96571 12.5554L5.3231 10.0537L5.32335 10.0519C5.36715 9.74003 5.48528 9.42762 5.61396 9.1716C5.74301 8.91484 5.92159 8.63744 6.1387 8.42033L11.7409 2.81812C11.7557 2.80222 11.7711 2.78682 11.7871 2.77194L12.7054 1.85367C13.3257 1.23334 14.1321 0.632009 15.135 0.533562ZM12.0921 5.11858L7.46452 9.74616C7.43163 9.77905 7.3602 9.87248 7.28925 10.0136C7.21817 10.1551 7.18651 10.2669 7.18011 10.3128L7.17969 10.3158L6.82135 12.8242L6.82084 12.8277C6.79122 13.0295 6.85375 13.1044 6.87255 13.1232C6.89304 13.1436 6.97381 13.2077 7.18018 13.1798L7.18213 13.1795L9.68569 12.8218C9.72686 12.816 9.83718 12.7849 9.98163 12.7123C10.1199 12.6428 10.2191 12.5706 10.2626 12.5298L14.8844 7.90797C13.7011 7.26941 12.7296 6.29938 12.0921 5.11858ZM16.2921 6.50026C15.0158 5.98816 14.0072 4.97899 13.5 3.71063L14.0312 3.17949C14.5442 2.66649 14.9628 2.43448 15.3182 2.39959C15.6244 2.36953 16.1092 2.4667 16.822 3.17949C17.5348 3.89228 17.632 4.3771 17.6019 4.68333C17.567 5.03873 17.335 5.45733 16.822 5.97033L16.2921 6.50026ZM2.35922 2.35782C3.55856 1.15849 5.3255 0.729071 7.5013 0.729071H9.16797C9.68574 0.729071 10.1055 1.1488 10.1055 1.66657C10.1055 2.18434 9.68574 2.60407 9.16797 2.60407H7.5013C5.51043 2.60407 4.36071 3.00799 3.68505 3.68365C3.00938 4.35931 2.60547 5.50904 2.60547 7.4999V12.4999C2.60547 14.4908 3.00938 15.6405 3.68505 16.3162C4.36071 16.9918 5.51043 17.3957 7.5013 17.3957H12.5013C14.4922 17.3957 15.6419 16.9918 16.3176 16.3162C16.9932 15.6405 17.3971 14.4908 17.3971 12.4999V10.8332C17.3971 10.3155 17.8169 9.89574 18.3346 9.89574C18.8524 9.89574 19.2721 10.3155 19.2721 10.8332V12.4999C19.2721 14.6757 18.8427 16.4426 17.6434 17.642C16.444 18.8413 14.6771 19.2707 12.5013 19.2707H7.5013C5.3255 19.2707 3.55856 18.8413 2.35922 17.642C1.15989 16.4426 0.730469 14.6757 0.730469 12.4999V7.4999C0.730469 5.32411 1.15989 3.55716 2.35922 2.35782Z" fill="black" fill-opacity="0.54"/>
</svg>
