<svg width="52" height="52" viewBox="0 0 52 52" fill="none" xmlns="http://www.w3.org/2000/svg">
<g clip-path="url(#clip0_778_2226)">
<path d="M25.4937 35.0022L22.0463 38.4215C20.9973 39.457 19.5825 40.0377 18.1085 40.0377C16.6344 40.0377 15.2197 39.457 14.1706 38.4215C13.6592 37.9112 13.2535 37.3051 12.9766 36.6378C12.6998 35.9705 12.5573 35.2552 12.5573 34.5327C12.5573 33.8103 12.6998 33.0949 12.9766 32.4276C13.2535 31.7603 13.6592 31.1542 14.1706 30.6439L20.7431 24.1275C21.7921 23.092 23.2069 22.5114 24.6809 22.5114C26.155 22.5114 27.5697 23.092 28.6188 24.1275C29.2864 24.7908 29.7694 25.6168 30.0201 26.5239C30.158 26.4101 30.2847 26.2834 30.3985 26.1455L32.2063 24.3518C31.8013 23.5094 31.2563 22.7417 30.5947 22.0815C29.0205 20.524 26.8954 19.6504 24.6809 19.6504C22.4664 19.6504 20.3413 20.524 18.7671 22.0815L12.1807 28.654C11.4049 29.4238 10.7891 30.3397 10.369 31.3486C9.94876 32.3576 9.73242 33.4397 9.73242 34.5327C9.73242 35.6257 9.94876 36.7078 10.369 37.7168C10.7891 38.7258 11.4049 39.6416 12.1807 40.4115C13.7549 41.969 15.88 42.8426 18.0945 42.8426C20.309 42.8426 22.4341 41.969 24.0083 40.4115L29.1233 35.3385H28.4226C27.4357 35.3558 26.4509 35.2427 25.4937 35.0022Z" fill="#A280FF"/>
<path d="M40.9224 11.8794C39.3482 10.3219 37.2231 9.44824 35.0086 9.44824C32.7941 9.44824 30.669 10.3219 29.0948 11.8794L23.9798 16.9524H24.6665C25.6605 16.9521 26.6502 17.0841 27.6094 17.3447L31.0568 13.9254C32.1058 12.8899 33.5205 12.3092 34.9946 12.3092C36.4687 12.3092 37.8834 12.8899 38.9325 13.9254C39.4439 14.4357 39.8496 15.0418 40.1265 15.7091C40.4033 16.3764 40.5458 17.0917 40.5458 17.8142C40.5458 18.5366 40.4033 19.252 40.1265 19.9193C39.8496 20.5866 39.4439 21.1927 38.9325 21.703L32.36 28.2194C31.311 29.2549 29.8962 29.8355 28.4222 29.8355C26.9481 29.8355 25.5334 29.2549 24.4843 28.2194C23.8167 27.5561 23.3337 26.7301 23.083 25.823C22.9427 25.9184 22.8114 26.0262 22.6906 26.1453L20.8828 27.9391C21.2878 28.7815 21.8327 29.5491 22.4944 30.2093C24.0686 31.7668 26.1937 32.6405 28.4082 32.6405C30.6227 32.6405 32.7478 31.7668 34.3219 30.2093L40.8944 23.6929C41.6685 22.9221 42.2828 22.006 42.7019 20.9972C43.121 19.9883 43.3368 18.9066 43.3368 17.8142C43.3368 16.7218 43.121 15.6401 42.7019 14.6312C42.2828 13.6224 41.6685 12.7063 40.8944 11.9354L40.9224 11.8794Z" fill="#A280FF"/>
</g>
<defs>
<clipPath id="clip0_778_2226">
<rect width="50.4493" height="50.4493" fill="white" transform="translate(0.830078 0.92041)"/>
</clipPath>
</defs>
</svg>
